<?xml version="1.0"?>
<svg xmlns="http://www.w3.org/2000/svg" height="512px" viewBox="0 -28 480 480" width="512px" class=""><g transform="matrix(1.00275 0 0 1.00275 -0.660902 -0.583797)"><g fill="#834b10"><path d="m376 240c-26.507812 0-48-21.492188-48-48h96c0 26.507812-21.492188 48-48 48zm0 0" data-original="#000000" class="" style="fill:#FFFFFF" data-old_color="#ffffff"/><path d="m370.105469 129.777344c-18.746094 18.742187-49.136719 18.742187-67.882813 0l67.882813-67.882813c18.742187 18.746094 18.742187 49.136719 0 67.882813zm0 0" data-original="#000000" class="" style="fill:#FFFFFF" data-old_color="#ffffff"/><path d="m288 56c0 26.507812-21.492188 48-48 48v-96c26.507812 0 48 21.492188 48 48zm0 0" data-original="#000000" class="" style="fill:#FFFFFF" data-old_color="#ffffff"/><path d="m177.777344 61.894531c18.742187 18.746094 18.742187 49.136719 0 67.882813l-67.882813-67.882813c18.746094-18.742187 49.136719-18.742187 67.882813 0zm0 0" data-original="#000000" class="" style="fill:#FFFFFF" data-old_color="#ffffff"/><path d="m104 144c26.507812 0 48 21.492188 48 48h-96c0-26.507812 21.492188-48 48-48zm0 0" data-original="#000000" class="" style="fill:#FFFFFF" data-old_color="#ffffff"/><path d="m109.894531 254.222656c18.746094-18.742187 49.136719-18.742187 67.882813 0l-67.882813 67.882813c-18.742187-18.746094-18.742187-49.136719 0-67.882813zm0 0" data-original="#000000" class="" style="fill:#FFFFFF" data-old_color="#ffffff"/><path d="m192 328c0-26.507812 21.492188-48 48-48v96c-26.507812 0-48-21.492188-48-48zm0 0" data-original="#000000" class="" style="fill:#FFFFFF" data-old_color="#ffffff"/><path d="m302.222656 322.105469c-18.742187-18.746094-18.742187-49.136719 0-67.882813l67.882813 67.882813c-18.746094 18.742187-49.136719 18.742187-67.882813 0zm0 0" data-original="#000000" class="" style="fill:#FFFFFF" data-old_color="#ffffff"/></g><path d="m376 192c0 75.109375-60.890625 136-136 136s-136-60.890625-136-136 60.890625-136 136-136 136 60.890625 136 136zm0 0" fill="#a45e14" data-original="#A45E14" class=""/><path d="m56 200c-4.417969 0-8-3.582031-8-8 0-32.078125 8.023438-63.648438 23.34375-91.832031 2.117188-3.878907 6.976562-5.308594 10.855469-3.191407 3.878906 2.117188 5.308593 6.976563 3.191406 10.855469-14.039063 25.832031-21.394531 54.765625-21.390625 84.167969 0 4.417969-3.582031 8-8 8zm0 0" fill="#c0f5f9" data-original="#C0F5F9" class=""/><path d="m107.824219 328c-2.164063.011719-4.238281-.855469-5.753907-2.398438-21.132812-21.847656-36.800781-48.382812-45.726562-77.441406-1.289062-4.226562 1.089844-8.699218 5.316406-9.988281 4.226563-1.289063 8.699219 1.089844 9.988282 5.316406 8.191406 26.617188 22.570312 50.914063 41.953124 70.910157 2.257813 2.304687 2.910157 5.742187 1.65625 8.714843-1.257812 2.972657-4.175781 4.898438-7.402343 4.886719zm0 0" fill="#c0f5f9" data-original="#C0F5F9" class=""/><path d="m412.558594 136c-3.339844 0-6.332032-2.082031-7.496094-5.214844-8.480469-22.867187-21.648438-43.710937-38.664062-61.183594-2.925782-3.195312-2.777344-8.144531.339843-11.15625 3.113281-3.011718 8.0625-2.996093 11.15625.035157 18.550781 19.074219 32.90625 41.820312 42.136719 66.777343.894531 2.445313.539062 5.171876-.945312 7.308594-1.488282 2.140625-3.921876 3.417969-6.527344 3.433594zm0 0" fill="#c0f5f9" data-original="#C0F5F9" class=""/><path d="m328 38.398438c-1.335938.003906-2.652344-.332032-3.824219-.972657-25.832031-14.050781-54.769531-21.417969-84.175781-21.425781-4.417969 0-8-3.582031-8-8s3.582031-8 8-8c32.078125 0 63.648438 8.023438 91.832031 23.34375 3.246094 1.734375 4.890625 5.460938 3.984375 9.03125-.910156 3.566406-4.136718 6.054688-7.816406 6.023438zm0 0" fill="#c0f5f9" data-original="#C0F5F9" class=""/><path d="m112 67.824219c-3.269531.015625-6.21875-1.957031-7.449219-4.984375-1.234375-3.023438-.5-6.496094 1.847657-8.769532 21.28125-20.574218 47.011718-35.980468 75.203124-45.015624 4.210938-1.34375 8.710938.984374 10.054688 5.191406 1.34375 4.210937-.980469 8.714844-5.191406 10.058594-25.816406 8.304687-49.378906 22.433593-68.863282 41.296874-1.507812 1.441407-3.515624 2.238282-5.601562 2.222657zm0 0" fill="#c0f5f9" data-original="#C0F5F9" class=""/><path d="m328 192c0 48.601562-39.398438 88-88 88s-88-39.398438-88-88 39.398438-88 88-88 88 39.398438 88 88zm0 0" fill="#fbedbf" data-original="#FBEDBF" class=""/><path d="m272 144-24 40h32l-64 64 8-48h-16l8-56zm0 0" fill="#f3af3e" data-original="#F3AF3E" class=""/><path d="m8 352c23.199219 0 23.199219 32 46.351562 32 23.152344 0 23.199219-32 46.402344-32 23.199219 0 23.199219 32 46.398438 32 23.199218 0 23.199218-32 46.398437-32 23.203125 0 23.203125 32 46.402344 32s23.199219-32 46.398437-32c23.199219 0 23.199219 32 46.402344 32 23.199219 0 23.199219-32 46.398438-32 23.199218 0 23.199218 32 46.457031 32 23.253906 0 23.191406-32 46.390625-32v72h-464zm0 0" fill="#6cbae5" data-original="#6CBAE5" class=""/><path d="m425.550781 408c-23.199219 0-23.199219-32-46.453125-32-23.257812 0-23.203125 32-46.402344 32-23.199218 0-23.199218-32-46.398437-32s-23.199219 32-46.402344 32c-23.199219 0-23.199219-32-46.398437-32-23.199219 0-23.199219 32-46.398438 32-23.203125 0-23.203125-32-46.402344-32-23.199218 0-23.199218 32-46.398437 32s-23.097656-32-46.296875-32v48h464v-48c-23.199219 0-23.199219 32-46.449219 32zm0 0" fill="#4799cf" data-original="#4799CF" class="active-path" style="fill:#4799CF"/><path d="m416 192h16v56h-16zm0 0" fill="#6cbae5" data-original="#6CBAE5" class=""/><path d="m416 264h16v16h-16zm0 0" fill="#6cbae5" data-original="#6CBAE5" class=""/><path d="m416 296h16v16h-16zm0 0" fill="#6cbae5" data-original="#6CBAE5" class=""/><path d="m360 320h16v48h-16zm0 0" fill="#6cbae5" data-original="#6CBAE5" class=""/><path d="m240 96c-53.019531 0-96 42.980469-96 96s42.980469 96 96 96 96-42.980469 96-96c-.058594-52.996094-43.003906-95.941406-96-96zm0 176c-44.183594 0-80-35.816406-80-80s35.816406-80 80-80 80 35.816406 80 80c-.046875 44.164062-35.835938 79.953125-80 80zm0 0" data-original="#000000" class="" style="fill:#FFFFFF" data-old_color="#ffffff"/><path d="m280 176h-17.871094l16.726563-27.878906c1.484375-2.472656 1.527343-5.550782.105469-8.058594-1.417969-2.511719-4.078126-4.0625-6.960938-4.0625h-56c-3.980469 0-7.355469 2.925781-7.921875 6.863281l-8 56c-.328125 2.296875.355469 4.625 1.875 6.378907 1.519531 1.75 3.726563 2.757812 6.046875 2.757812h6.550781l-6.398437 38.6875c-.566406 3.429688 1.144531 6.832031 4.234375 8.417969 3.085937 1.589843 6.851562 1.003906 9.308593-1.449219l64-64c2.292969-2.292969 2.976563-5.742188 1.726563-8.734375-1.25-2.996094-4.179687-4.9375-7.421875-4.921875zm-52 48.6875 3.886719-23.375c.386719-2.320312-.265625-4.691406-1.785157-6.484375-1.519531-1.792969-3.75-2.828125-6.101562-2.828125h-6.777344l5.714844-40h34.933594l-16.726563 27.878906c-1.484375 2.472656-1.527343 5.550782-.105469 8.058594 1.417969 2.511719 4.078126 4.0625 6.960938 4.0625h12.6875zm0 0" data-original="#000000" class="" style="fill:#FFFFFF" data-old_color="#ffffff"/><path d="m472 344c-15.6875 0-23.464844 10.703125-29.695312 19.296875-5.890626 8.117187-9.578126 12.703125-16.761719 12.703125-7.183594 0-10.863281-4.585938-16.742188-12.695312-6.242187-8.601563-14.007812-19.304688-29.703125-19.304688-1.097656 0-2.074218.167969-3.097656.265625v-16.851563c2.90625-3.109374 2.800781-7.972656-.230469-10.957031l-28.570312-28.609375c10.703125-11.867187 19.351562-25.429687 25.601562-40.136718 1.085938.066406 2.136719.289062 3.199219.289062 15.066406.003906 29.496094-6.085938 40-16.886719v16.886719h16v-56c0-4.417969-3.582031-8-8-8h-40.40625c-.828125-15.90625-4.3125-31.5625-10.3125-46.320312.796875-.742188 1.6875-1.449219 2.488281-2.246094 8.757813-8.765625 14.339844-20.203125 15.863281-32.496094 5.289063 8.867188 9.785157 18.183594 13.429688 27.847656 1.546875 4.140625 6.160156 6.246094 10.300781 4.699219 4.144531-1.546875 6.246094-6.160156 4.699219-10.300781-9.230469-24.953125-23.582031-47.699219-42.132812-66.777344-.136719-.132812-.3125-.191406-.457032-.308594-.570312-.632812-1.097656-1.289062-1.703125-1.898437-3.125-3.121094-8.191406-3.121094-11.3125 0l-28.609375 28.609375c-11.863281-10.699219-25.425781-19.351563-40.128906-25.601563.058594-1.078125.28125-2.152343.28125-3.199219.003906-12.476562-4.179688-24.589843-11.886719-34.398437 13.949219 3.585937 27.402344 8.882813 40.054688 15.765625 3.878906 2.117188 8.738281.6875 10.855469-3.191406 2.117187-3.878906.6875-8.738282-3.191407-10.855469-28.1875-15.3125-59.753906-23.33203125-91.832031-23.328125-4.417969 0-8 3.582031-8 8v40.40625c-15.957031.847656-31.65625 4.359375-46.449219 10.402344-.734375-.800782-1.335937-1.753906-2.117187-2.535156-8.804688-8.808594-20.3125-14.40625-32.671875-15.898438 11.253906-6.644531 23.21875-12.011719 35.671875-16 4.230468-1.332031 6.578125-5.84375 5.242187-10.074219-1.335937-4.230469-5.84375-6.578125-10.074219-5.246093-28.191406 9.035156-53.921874 24.441406-75.203124 45.015624-.117188.15625-.226563.316407-.328126.480469-.621093.5625-1.269531 1.082031-1.871093 1.679688-3.121094 3.125-3.121094 8.191406 0 11.3125l28.609375 28.609375c-10.703125 11.867187-19.351563 25.429687-25.601563 40.136718-1.085937-.066406-2.136719-.289062-3.199219-.289062-12.476562-.003906-24.589843 4.179688-34.398437 11.886719 3.585937-13.949219 8.878906-27.402344 15.765625-40.054688 2.117188-3.878906.6875-8.738281-3.191406-10.855469-3.878906-2.117187-8.738282-.6875-10.855469 3.191407-15.316406 28.183593-23.335937 59.753906-23.328125 91.832031 0 4.417969 3.582031 8 8 8h40.40625c.828125 15.90625 4.3125 31.5625 10.3125 46.320312-.796875.742188-1.6875 1.449219-2.488281 2.246094-8.816407 8.824219-14.414063 20.347656-15.902344 32.730469-7.03125-11.902344-12.632813-24.59375-16.679687-37.808594-1.289063-4.226562-5.761719-6.605469-9.988282-5.316406-4.226562 1.289063-6.605468 5.761719-5.316406 9.988281 8.925781 29.058594 24.59375 55.59375 45.726562 77.441406.136719.140626.320313.183594.464844.308594.570313.625 1.097656 1.28125 1.695313 1.890625 3.125 3.121094 8.191406 3.121094 11.3125 0l28.609375-28.601562c11.839844 10.691406 25.375 19.34375 40.046875 25.601562-.0625 1.085938-.199219 2.160157-.199219 3.261719.015625 5.703125.910156 11.371094 2.648438 16.800781-9.652344 3.074219-17.796876 9.664063-22.816407 18.464844-5.878906 8.085937-9.550781 12.671875-16.71875 12.671875s-10.839843-4.585938-16.722656-12.695312c-6.230469-8.601563-13.992187-19.304688-29.671875-19.304688s-23.429688 10.703125-29.664062 19.304688c-5.871094 8.109374-9.542969 12.695312-16.710938 12.695312s-10.824219-4.585938-16.6875-12.6875c-6.230469-8.609375-13.984375-19.3125-29.65625-19.3125-4.417969 0-8 3.582031-8 8s3.582031 8 8 8c7.199219 0 10.824219 4.585938 16.695312 12.695312 6.234376 8.601563 13.984376 19.304688 29.648438 19.304688s23.441406-10.703125 29.671875-19.304688c5.871094-8.109374 9.585937-12.695312 16.703125-12.695312 7.121094 0 10.839844 4.585938 16.722656 12.695312 6.230469 8.601563 13.992188 19.304688 29.671875 19.304688 15.679688 0 23.4375-10.703125 29.671875-19.304688 5.878906-8.109374 9.550782-12.695312 16.71875-12.695312 7.167969 0 10.839844 4.585938 16.71875 12.695312 6.234375 8.601563 13.992188 19.304688 29.671875 19.304688 15.679688 0 23.441407-10.703125 29.679688-19.304688 5.882812-8.109374 9.554687-12.695312 16.730469-12.695312 7.175781 0 10.832031 4.585938 16.703124 12.695312 6.230469 8.601563 13.992188 19.304688 29.671876 19.304688 15.679687 0 23.449218-10.703125 29.679687-19.304688 5.886719-8.109374 9.5625-12.695312 16.738281-12.695312 7.175782 0 10.871094 4.585938 16.75 12.703125 6.242188 8.59375 14.007813 19.296875 29.695313 19.296875s23.464843-10.703125 29.703125-19.296875c5.890625-8.117187 9.554687-12.703125 16.753906-12.703125 4.417969 0 8-3.582031 8-8s-3.582031-8-8-8zm-232-24c-70.691406 0-128-57.308594-128-128s57.308594-128 128-128 128 57.308594 128 128c-.082031 70.65625-57.34375 127.917969-128 128zm95.847656-20.800781 22.398438 22.402343c-15.136719 9.929688-35.058594 8.453126-48.566406-3.601562 9.398437-5.269531 18.175781-11.574219 26.167968-18.800781zm42.398438-67.359375c2.976562-10.378906 4.769531-21.058594 5.347656-31.839844h31.605469c-3.683594 17.738281-18.832031 30.785156-36.917969 31.800781zm-12.308594-109.496094c-5.246094-9.402344-11.53125-18.191406-18.738281-26.191406l22.402343-22.398438c9.921876 15.15625 8.417969 35.089844-3.664062 48.589844zm-117.9375-73.9375v-31.605469c17.734375 3.683594 30.78125 18.828125 31.800781 36.910157-10.367187-2.957032-21.035156-4.738282-31.800781-5.304688zm-77.65625 17.65625c-9.40625 5.257812-18.191406 11.558594-26.191406 18.777344l-22.398438-22.398438c15.148438-9.9375 35.082032-8.449218 48.589844 3.621094zm-68.625 86.136719c-2.960938 10.367187-4.742188 21.035156-5.3125 31.800781h-31.605469c3.683594-17.738281 18.832031-30.785156 36.917969-31.800781zm12.34375 109.457031c5.257812 9.40625 11.558594 18.191406 18.777344 26.191406l-22.398438 22.398438c-9.9375-15.148438-8.449218-35.082032 3.621094-48.589844zm90.082031 84.28125c-.054687-.128906 0-.265625-.105469-.394531-2.320312-4.777344-3.648437-9.972657-3.910156-15.277344 10.386719 2.96875 21.082032 4.757813 31.871094 5.328125v31.605469c-2.652344-.546875-5.242188-1.367188-7.726562-2.445313-.378907-.515625-.707032-.90625-1.097657-1.449218-4.5-7.53125-11.121093-13.574219-19.03125-17.367188zm145.261719 17.367188c-5.878906 8.109374-9.558594 12.695312-16.726562 12.695312-7.167969 0-10.839844-4.585938-16.710938-12.695312-6.234375-8.601563-13.992188-19.304688-29.664062-19.304688-15.671876 0-23.449219 10.703125-29.679688 19.304688-2.402344 3.667968-5.304688 6.980468-8.625 9.839843v-37.550781c15.9375-.835938 31.621094-4.332031 46.398438-10.347656.738281.800781 1.386718 1.730468 2.167968 2.523437 16.695313 16.703125 42.089844 21.105469 63.433594 11v12.300781c-4.007812 3.636719-7.566406 7.746094-10.59375 12.234376zm0 0" data-original="#000000" class="" style="fill:#FFFFFF" data-old_color="#ffffff"/><path d="m416 264h16v16h-16zm0 0" data-original="#000000" class="" style="fill:#FFFFFF" data-old_color="#ffffff"/><path d="m416 296h16v16h-16zm0 0" data-original="#000000" class="" style="fill:#FFFFFF" data-old_color="#ffffff"/></g> </svg>
