<svg id="Layer_1" data-name="Layer 1" xmlns="http://www.w3.org/2000/svg" viewBox="0 0 187.75 82.43">
  <defs>
    <style>
      .cls-1 {
        fill: none;
      }

      .cls-2 {
        font-size: 65px;
        font-family: BigCaslon-Medium, Big Caslon;
        font-weight: 500;
      }

      .cls-2, .cls-6 {
        fill: #fff;
      }

      .cls-3 {
        fill: #62c6be;
      }

      .cls-4 {
        fill: #a2d9d6;
      }

      .cls-5 {
        fill: #ceebea;
      }
    </style>
  </defs>
  <title>newlogo</title>
  <rect id="_Slice_" data-name="&lt;Slice&gt;" class="cls-1" width="187.75" height="66"/>
  <text class="cls-2" transform="translate(70.45 57.01) scale(1.05 1)">AIS</text>
  <g id="Artwork_3" data-name="Artwork 3">
    <g>
      <path class="cls-3" d="M45.33,45.29H24.26a3.71,3.71,0,0,1-3.83-3.59V22a3.71,3.71,0,0,1,3.83-3.59H45.33A3.71,3.71,0,0,1,49.16,22V41.7A3.71,3.71,0,0,1,45.33,45.29Z" transform="translate(0 -0.84)"/>
      <path class="cls-4" d="M45.33,42.6H24.26a.93.93,0,0,1-1-.9V22a.93.93,0,0,1,1-.9H45.33a.93.93,0,0,1,1,.9V41.7A.93.93,0,0,1,45.33,42.6Z" transform="translate(0 -0.84)"/>
      <g>
        <ellipse class="cls-3" cx="8.93" cy="23.81" rx="1.92" ry="1.79"/>
        <ellipse class="cls-3" cx="60.66" cy="38.17" rx="1.92" ry="1.79"/>
      </g>
      <g>
        <ellipse class="cls-4" cx="7.02" cy="46.24" rx="1.92" ry="1.79"/>
        <ellipse class="cls-4" cx="62.58" cy="15.73" rx="1.92" ry="1.79"/>
      </g>
      <g>
        <ellipse class="cls-3" cx="42.46" cy="6.76" rx="1.92" ry="1.79"/>
        <ellipse class="cls-3" cx="27.13" cy="55.22" rx="1.92" ry="1.79"/>
      </g>
      <g>
        <ellipse class="cls-4" cx="18.51" cy="4.96" rx="1.92" ry="1.79"/>
        <ellipse class="cls-4" cx="51.08" cy="57.01" rx="1.92" ry="1.79"/>
      </g>
      <path class="cls-5" d="M34.8,39.47a1,1,0,0,1,.71.3,3.46,3.46,0,0,0,2.52,1,3,3,0,0,0,3.2-2.5.92.92,0,0,1,.48-.7A3.09,3.09,0,0,0,43.42,35a2.86,2.86,0,0,0-1-2.06.85.85,0,0,1,0-1.26,2.86,2.86,0,0,0,1-2.06,3.26,3.26,0,0,0-2.63-3,.89.89,0,0,1-.67-1.06,2.07,2.07,0,0,0,.06-.45,2.49,2.49,0,0,0-2.69-2.24,2.9,2.9,0,0,0-2,.76,1.06,1.06,0,0,1-1.36,0,2.92,2.92,0,0,0-2-.76,2.5,2.5,0,0,0-2.69,2.24,2.12,2.12,0,0,0,.05.44.89.89,0,0,1-.67,1.06,3.25,3.25,0,0,0-2.61,3,2.76,2.76,0,0,0,.72,1.82.85.85,0,0,1,0,1.11,3.18,3.18,0,0,0-.74,2,3.42,3.42,0,0,0,1.73,2.87.9.9,0,0,1,.42.74,3,3,0,0,0,3.23,2.67,3.44,3.44,0,0,0,2.52-1A1,1,0,0,1,34.8,39.47Z" transform="translate(0 -0.84)"/>
      <path class="cls-6" d="M64.49,31H50.06V29.08H54a.84.84,0,1,0,0-1.68H50.06V25.49h2.7a3.91,3.91,0,0,0,2.67-1l5.89-5.53a3,3,0,0,0,1.26.28,2.86,2.86,0,0,0,2-.77,2.51,2.51,0,0,0,0-3.73,2.94,2.94,0,0,0-4,0,2.55,2.55,0,0,0-.83,1.86,2.41,2.41,0,0,0,.3,1.18l-5.9,5.52a2,2,0,0,1-1.4.54h-2.7V22a4.59,4.59,0,0,0-4.73-4.43h-2V10.1a2.66,2.66,0,0,0,1.91-2.5,2.82,2.82,0,0,0-5.62,0,2.66,2.66,0,0,0,1.91,2.5v7.43h-2V13.88a.9.9,0,0,0-1.79,0v3.65h-2V4A.9.9,0,0,0,33.9,4V17.53h-2V13.88a.9.9,0,0,0-1.79,0v3.65H28V15a3.4,3.4,0,0,0-1.1-2.5L21,7a2.52,2.52,0,0,0-.53-3,3,3,0,0,0-4,0,2.54,2.54,0,0,0,0,3.73,2.93,2.93,0,0,0,2,.77,2.85,2.85,0,0,0,1.25-.28l5.9,5.53A1.79,1.79,0,0,1,26.24,15v2.53h-2a5.15,5.15,0,0,0-1.18.14.84.84,0,0,0-.65,1,.92.92,0,0,0,1.09.61,3.06,3.06,0,0,1,.74-.09H45.33A2.85,2.85,0,0,1,48.27,22V41.7a2.61,2.61,0,0,1-.09.69.82.82,0,0,0,.64,1l.22,0a.89.89,0,0,0,.87-.63,4.13,4.13,0,0,0,.15-1.11V39.85H58a2.81,2.81,0,0,0,2.67,1.79,2.64,2.64,0,1,0,0-5.26A2.81,2.81,0,0,0,58,38.17H50.06V36.26H54a.84.84,0,1,0,0-1.68H50.06V32.67H64.49a.84.84,0,1,0,0-1.68ZM61.85,15.9a1.08,1.08,0,0,1,1.45,0,.93.93,0,0,1,0,1.35,1.08,1.08,0,0,1-1.45,0h0a.93.93,0,0,1,0-1.35ZM42.46,6.65a1,1,0,1,1-1,.95A1,1,0,0,1,42.46,6.65ZM17.79,6.48a.91.91,0,0,1,0-1.35,1.07,1.07,0,0,1,1.44,0,.91.91,0,0,1,0,1.35h0A1.07,1.07,0,0,1,17.79,6.48ZM60.66,38.05a1,1,0,1,1-1,1A1,1,0,0,1,60.66,38.05Z" transform="translate(0 -0.84)"/>
      <path class="cls-6" d="M49.83,55.5,43.93,50a1.78,1.78,0,0,1-.57-1.31V46.13h2A5.15,5.15,0,0,0,46.51,46a.84.84,0,0,0,.65-1,.89.89,0,0,0-1.09-.6,3.65,3.65,0,0,1-.74.08H24.26a2.85,2.85,0,0,1-2.94-2.75V22a2.68,2.68,0,0,1,.1-.69.84.84,0,0,0-.65-1,.89.89,0,0,0-1.09.6A4.13,4.13,0,0,0,19.53,22v1.85H11.6A2.81,2.81,0,0,0,8.93,22a2.64,2.64,0,1,0,0,5.27,2.82,2.82,0,0,0,2.67-1.8h7.93V27.4H15.64a.84.84,0,1,0,0,1.68h3.89V31H5.1a.84.84,0,1,0,0,1.68H19.53v1.91H15.64a.84.84,0,1,0,0,1.68h3.89v1.91h-2.7a3.91,3.91,0,0,0-2.67,1L8.27,44.73A3,3,0,0,0,7,44.45a2.93,2.93,0,0,0-2,.77A2.53,2.53,0,0,0,5,49a3,3,0,0,0,4,0,2.54,2.54,0,0,0,.82-1.86,2.51,2.51,0,0,0-.29-1.18l5.89-5.52a2,2,0,0,1,1.4-.54h2.7V41.7a4.59,4.59,0,0,0,4.73,4.43h2v7.43a2.67,2.67,0,0,0-1.92,2.5,2.82,2.82,0,0,0,5.63,0A2.68,2.68,0,0,0,28,53.56V46.13h2v3.65a.9.9,0,0,0,1.79,0V46.13h2V59.65a.9.9,0,0,0,1.79,0V46.13h2v3.65a.9.9,0,0,0,1.79,0V46.13h2v2.53a3.41,3.41,0,0,0,1.11,2.5l5.89,5.52a2.53,2.53,0,0,0,.53,3,3,3,0,0,0,4,0,2.54,2.54,0,0,0,0-3.73A3,3,0,0,0,49.83,55.5ZM8.93,25.61a1,1,0,1,1,0-1.91,1,1,0,1,1,0,1.91ZM7.74,47.76A1,1,0,0,1,7,48a1,1,0,0,1-.72-.28.91.91,0,0,1,0-1.35A1,1,0,0,1,7,46.13a1,1,0,0,1,.72.28h0a.91.91,0,0,1,0,1.35ZM27.13,57a1,1,0,1,1,0-1.91,1,1,0,1,1,0,1.91ZM51.8,58.53a1.07,1.07,0,0,1-1.44,0,.91.91,0,0,1,0-1.35,1.07,1.07,0,0,1,1.44,0A.91.91,0,0,1,51.8,58.53Z" transform="translate(0 -0.84)"/>
      <path class="cls-6" d="M27.43,38.11h0c0,2,1.86,3.53,4.13,3.53a4.44,4.44,0,0,0,3.24-1.33A4.4,4.4,0,0,0,38,41.64a3.91,3.91,0,0,0,4.12-3.31A3.89,3.89,0,0,0,44.31,35a3.68,3.68,0,0,0-1.24-2.69,3.68,3.68,0,0,0,1.24-2.69A4.12,4.12,0,0,0,41,25.78a2.59,2.59,0,0,0,.09-.68A3.37,3.37,0,0,0,37.49,22a3.8,3.8,0,0,0-2.69,1.05A3.84,3.84,0,0,0,32.1,22a3.37,3.37,0,0,0-3.59,3.08,2.59,2.59,0,0,0,.09.68,4.12,4.12,0,0,0-3.32,3.81A3.59,3.59,0,0,0,26.22,32a4,4,0,0,0-.94,2.54A4.27,4.27,0,0,0,27.43,38.11Zm2.49-10.82h0a1,1,0,0,0,.58-.2A.8.8,0,0,0,30.71,26l0,0v0l-.05-.05h0a1.22,1.22,0,0,1-.33-.81,1.64,1.64,0,0,1,1.8-1.4,1.64,1.64,0,0,1,1.8,1.4.9.9,0,0,0,1.79,0,1.86,1.86,0,0,1,3.6,0,1.1,1.1,0,0,1-.14.53,5.25,5.25,0,0,0-1.47.34.83.83,0,0,0-.48,1.1.93.93,0,0,0,1.18.45,3.41,3.41,0,0,1,1.24-.23h.05a2.63,2.63,0,0,1,2.85,2.3,2.24,2.24,0,0,1-1.38,1.95.81.81,0,0,0,0,1.48A2.24,2.24,0,0,1,42.52,35a2.08,2.08,0,0,1-.79,1.58,4,4,0,0,0-2.36-1.78.91.91,0,0,0-1.12.55.83.83,0,0,0,.59,1,2,2,0,0,1,1.53,1.74A2.15,2.15,0,0,1,38,40a2.15,2.15,0,0,1-2.34-1.86V32.73A2.14,2.14,0,0,1,38,30.88a.84.84,0,1,0,0-1.68,4.64,4.64,0,0,0-2.34.62V28.75a.9.9,0,0,0-1.79,0v4.66a4,4,0,0,0-1-.43.9.9,0,0,0-1.12.55.83.83,0,0,0,.58,1,1.94,1.94,0,0,1,1.53,1.74v1.79A2.15,2.15,0,0,1,31.56,40a2.14,2.14,0,0,1-2.33-1.86,1.64,1.64,0,0,1,.55-1.2.79.79,0,0,0,0-1.18,1,1,0,0,0-1.27,0,3.72,3.72,0,0,0-.55.65,2.48,2.48,0,0,1-.9-1.85,2.92,2.92,0,0,1,2.54-2.65.85.85,0,0,0,.67-1,.9.9,0,0,0-1.08-.63,5.48,5.48,0,0,0-1.64.63,2,2,0,0,1-.49-1.27A2.63,2.63,0,0,1,29.92,27.29Z" transform="translate(0 -0.84)"/>
    </g>
  </g>
</svg>
