<?xml version="1.0" encoding="iso-8859-1"?>
<!-- Generator: Adobe Illustrator 23.0.1, SVG Export Plug-In . SVG Version: 6.00 Build 0)  -->
<svg version="1.1" xmlns="http://www.w3.org/2000/svg" xmlns:xlink="http://www.w3.org/1999/xlink" x="0px" y="0px"
	 viewBox="0 0 900 600" style="enable-background:new 0 0 900 600;" xml:space="preserve">
<g id="Locked_Layer">
	<g>
		<g>
			<path style="fill:#231F20;" d="M423,517H266v-98h157V517z M267,516h155v-96H267V516z"/>
		</g>
		<g>
			<path style="fill:#231F20;" d="M311,431h-34v-25h34V431z M278,430h32v-23h-32V430z"/>
		</g>
		<g>
			<path style="fill:#231F20;" d="M394.089,449.557c-6.336,0-11.491-5.155-11.491-11.491s5.155-11.491,11.491-11.491
				s11.491,5.155,11.491,11.491S400.426,449.557,394.089,449.557z M394.089,427.574c-5.785,0-10.491,4.706-10.491,10.491
				s4.707,10.491,10.491,10.491s10.491-4.706,10.491-10.491S399.874,427.574,394.089,427.574z"/>
		</g>
		<g>
			<path style="fill:#231F20;" d="M344.491,499.349c-17.259,0-31.301-14.041-31.301-31.3c0-17.26,14.042-31.301,31.301-31.301
				s31.3,14.041,31.3,31.301C375.792,485.308,361.75,499.349,344.491,499.349z M344.491,437.748
				c-16.708,0-30.301,13.593-30.301,30.301c0,16.707,13.593,30.3,30.301,30.3c16.708,0,30.3-13.593,30.3-30.3
				C374.792,451.341,361.199,437.748,344.491,437.748z"/>
		</g>
	</g>
	<g>
		<g>
			<g>
				<polygon style="fill:#A6A8AB;" points="212,517 209,517 209,516 211,516 211,515 212,515 				"/>
			</g>
			<g>
				<path style="fill:#A6A8AB;" d="M206,517h-4v-1h4V517z M198,517h-4v-1h4V517z M190,517h-4v-1h4V517z M182,517h-4v-1h4V517z
					 M174,517h-4v-1h4V517z M166,517h-4v-1h4V517z M158,517h-4v-1h4V517z M150,517h-4v-1h4V517z M142,517h-4v-1h4V517z M134,517h-4
					v-1h4V517z M126,517h-4v-1h4V517z M118,517h-4v-1h4V517z M110,517h-4v-1h4V517z M102,517h-4v-1h4V517z M94,517h-4v-1h4V517z
					 M86,517h-4v-1h4V517z M78,517h-4v-1h4V517z M70,517h-4v-1h4V517z M62,517h-3v-1h3V517z"/>
			</g>
			<g>
				<polygon style="fill:#A6A8AB;" points="57,517 55,517 55,515 56,515 56,516 57,516 				"/>
			</g>
			<g>
				<path style="fill:#A6A8AB;" d="M56,511h-1v-4h1V511z M56,503h-1v-4h1V503z M56,495h-1v-4h1V495z M56,487h-1v-4h1V487z M56,479
					h-1v-4h1V479z M56,471h-1v-4h1V471z M56,463h-1v-4h1V463z M56,455h-1v-4h1V455z M56,447h-1v-4h1V447z M56,439h-1v-4h1V439z
					 M56,431h-1v-4h1V431z"/>
			</g>
			<g>
				<polygon style="fill:#A6A8AB;" points="56,422 55,422 55,419 57,419 57,420 56,420 				"/>
			</g>
			<g>
				<path style="fill:#A6A8AB;" d="M208,420h-3v-1h3V420z M201,420h-4v-1h4V420z M193,420h-4v-1h4V420z M185,420h-4v-1h4V420z
					 M177,420h-4v-1h4V420z M169,420h-4v-1h4V420z M161,420h-4v-1h4V420z M153,420h-4v-1h4V420z M145,420h-4v-1h4V420z M137,420h-4
					v-1h4V420z M129,420h-4v-1h4V420z M121,420h-4v-1h4V420z M113,420h-4v-1h4V420z M105,420h-4v-1h4V420z M97,420h-4v-1h4V420z
					 M89,420h-4v-1h4V420z M81,420h-4v-1h4V420z M73,420h-4v-1h4V420z M65,420h-4v-1h4V420z"/>
			</g>
			<g>
				<polygon style="fill:#A6A8AB;" points="212,422 211,422 211,420 209,420 209,419 212,419 				"/>
			</g>
			<g>
				<path style="fill:#A6A8AB;" d="M212,510h-1v-4h1V510z M212,502h-1v-4h1V502z M212,494h-1v-4h1V494z M212,486h-1v-4h1V486z
					 M212,478h-1v-4h1V478z M212,470h-1v-4h1V470z M212,462h-1v-4h1V462z M212,454h-1v-4h1V454z M212,446h-1v-4h1V446z M212,438h-1
					v-4h1V438z M212,430h-1v-4h1V430z"/>
			</g>
		</g>
		<g>
			<g>
				<polygon style="fill:#A6A8AB;" points="100,431 97,431 97,430 99,430 99,429 100,429 				"/>
			</g>
			<g>
				<path style="fill:#A6A8AB;" d="M93,431h-4v-1h4V431z M85,431h-4v-1h4V431z M77,431h-4v-1h4V431z"/>
			</g>
			<g>
				<polygon style="fill:#A6A8AB;" points="68,431 66,431 66,429 67,429 67,430 68,430 				"/>
			</g>
			<g>
				<path style="fill:#A6A8AB;" d="M67,425h-1v-4h1V425z M67,417h-1v-4h1V417z"/>
			</g>
			<g>
				<polygon style="fill:#A6A8AB;" points="67,409 66,409 66,406 68,406 68,407 67,407 				"/>
			</g>
			<g>
				<path style="fill:#A6A8AB;" d="M93,407h-4v-1h4V407z M85,407h-4v-1h4V407z M77,407h-4v-1h4V407z"/>
			</g>
			<g>
				<polygon style="fill:#A6A8AB;" points="100,409 99,409 99,407 97,407 97,406 100,406 				"/>
			</g>
			<g>
				<path style="fill:#A6A8AB;" d="M100,425h-1v-4h1V425z M100,417h-1v-4h1V417z"/>
			</g>
		</g>
		<g>
			<path style="fill:#A6A8AB;" d="M183.066,449.557c-0.667,0-1.334-0.058-1.983-0.171l0.172-0.984
				c1.189,0.205,2.441,0.207,3.643-0.004l0.173,0.984C184.411,449.498,183.737,449.557,183.066,449.557z M177.333,448.026
				c-1.164-0.671-2.192-1.533-3.058-2.562l0.765-0.645c0.791,0.94,1.73,1.727,2.792,2.339L177.333,448.026z M188.819,448.015
				l-0.501-0.865c1.061-0.614,1.999-1.402,2.788-2.344l0.767,0.643C191.007,446.479,189.98,447.342,188.819,448.015z
				 M172.272,442.017c-0.459-1.257-0.694-2.578-0.697-3.927l1-0.002c0.003,1.231,0.217,2.438,0.637,3.585L172.272,442.017z
				 M194.089,441.995l-1.05-0.342c0.417-1.148,0.795-2.355,0.795-3.588l1.166-0.045v0.045
				C195,439.415,194.547,440.737,194.089,441.995z M173.197,434.498l-0.94-0.34c0.456-1.262,1.125-2.426,1.989-3.458l0.768,0.641
				C174.225,432.284,173.614,433.347,173.197,434.498z M192.914,434.438c-0.423-1.148-1.04-2.206-1.834-3.145l0.764-0.646
				c0.87,1.028,1.545,2.187,2.009,3.445L192.914,434.438z M177.797,428.992l-0.503-0.863c1.163-0.678,2.423-1.14,3.746-1.375
				l0.175,0.984C180.008,427.953,178.858,428.375,177.797,428.992z M188.283,428.961c-1.065-0.611-2.217-1.026-3.426-1.234
				l0.17-0.986c1.324,0.229,2.587,0.684,3.754,1.354L188.283,428.961z"/>
		</g>
		<g>
			<path style="fill:#A6A8AB;" d="M133.472,499c-1.374,0-2.729,0.086-4.055-0.085l0.128-0.905c1.29,0.167,2.61,0.295,3.922,0.295
				l0.028,0.716L133.495,499C133.487,499,133.479,499,133.472,499z M137.583,499.082l-0.13-0.992
				c1.307-0.171,2.614-0.432,3.885-0.772l0.259,0.967C140.284,498.636,138.934,498.904,137.583,499.082z M125.402,498.299
				c-1.318-0.351-2.624-0.792-3.88-1.312l0.382-0.924c1.216,0.503,2.479,0.93,3.755,1.269L125.402,498.299z M145.471,496.965
				l-0.384-0.924c1.215-0.504,2.408-1.095,3.548-1.755l0.501,0.865C147.959,495.833,146.726,496.443,145.471,496.965z
				 M117.85,495.18c-1.173-0.677-2.318-1.44-3.404-2.271l0.607-0.795c1.052,0.805,2.161,1.545,3.296,2.199L117.85,495.18z
				 M152.535,492.874l-0.61-0.793c1.045-0.804,2.047-1.684,2.977-2.614l0.707,0.707
				C154.648,491.135,153.614,492.043,152.535,492.874z M111.366,490.212c-0.964-0.962-1.874-1.995-2.704-3.071l0.792-0.611
				c0.804,1.043,1.685,2.043,2.618,2.975L111.366,490.212z M158.308,487.096l-0.793-0.609c0.803-1.045,1.544-2.153,2.204-3.292
				l0.865,0.5C159.903,484.872,159.137,486.016,158.308,487.096z M106.382,483.745c-0.683-1.176-1.294-2.408-1.817-3.663
				l0.923-0.385c0.506,1.215,1.098,2.407,1.759,3.546L106.382,483.745z M162.396,480.024l-0.924-0.383
				c0.504-1.219,0.933-2.481,1.273-3.754l0.966,0.258C163.36,477.46,162.918,478.766,162.396,480.024z M103.242,476.208
				c-0.354-1.313-0.624-2.663-0.802-4.013l0.991-0.131c0.173,1.306,0.434,2.612,0.776,3.884L103.242,476.208z M164.62,472.131
				l-0.933-0.129c0.169-1.302,0.313-2.632,0.313-3.953V468h1v0.049C165,469.413,164.796,470.787,164.62,472.131z M102.478,468.093
				l-0.31-0.032c0-1.355,0.086-2.708,0.255-4.031l0.992,0.127c-0.165,1.281-0.248,2.591-0.248,3.893L102.478,468.093z
				 M163.497,463.97c-0.176-1.308-0.44-2.613-0.784-3.882l0.965-0.262c0.356,1.311,0.628,2.659,0.811,4.011L163.497,463.97z
				 M104.176,460.27l-0.967-0.256c0.349-1.316,0.788-2.623,1.307-3.882l0.925,0.381C104.938,457.731,104.513,458.995,104.176,460.27
				z M161.425,456.343c-0.508-1.213-1.103-2.405-1.767-3.543l0.863-0.504c0.687,1.176,1.3,2.407,1.825,3.66L161.425,456.343z
				 M107.188,452.956l-0.867-0.498c0.677-1.176,1.44-2.322,2.269-3.407l0.795,0.607
				C108.582,450.708,107.843,451.818,107.188,452.956z M157.443,449.517c-0.806-1.04-1.688-2.039-2.624-2.968l0.705-0.709
				c0.965,0.959,1.877,1.99,2.709,3.065L157.443,449.517z M111.991,446.674l-0.709-0.705c0.959-0.964,1.992-1.874,3.069-2.706
				l0.611,0.791C113.919,444.859,112.919,445.741,111.991,446.674z M151.833,443.945c-1.047-0.799-2.158-1.537-3.301-2.193
				l0.498-0.867c1.181,0.678,2.328,1.44,3.409,2.266L151.833,443.945z M118.247,441.843l-0.503-0.863
				c1.175-0.685,2.406-1.298,3.661-1.822l0.386,0.922C120.577,440.588,119.384,441.181,118.247,441.843z M144.974,440.01
				c-1.221-0.501-2.485-0.926-3.757-1.262l0.255-0.967c1.315,0.347,2.621,0.785,3.882,1.303L144.974,440.01z M125.538,438.796
				l-0.261-0.965c1.314-0.355,2.664-0.627,4.012-0.807l0.132,0.992C128.117,438.189,126.811,438.452,125.538,438.796z
				 M137.328,437.992c-1.268-0.162-2.566-0.118-3.86-0.118L133.373,437h0.096c1.335,0,2.677-0.041,3.987,0.126L137.328,437.992z"/>
		</g>
	</g>
	<g>
		<g>
			<g>
				<polygon style="fill:#A6A8AB;" points="607,299 604,299 604,298 606,298 606,297 607,297 				"/>
			</g>
			<g>
				<path style="fill:#A6A8AB;" d="M600,299h-4v-1h4V299z M592,299h-4v-1h4V299z M584,299h-4v-1h4V299z M576,299h-4v-1h4V299z
					 M568,299h-4v-1h4V299z M560,299h-4v-1h4V299z M552,299h-4v-1h4V299z M544,299h-4v-1h4V299z M536,299h-4v-1h4V299z M528,299h-4
					v-1h4V299z M520,299h-4v-1h4V299z M512,299h-4v-1h4V299z M504,299h-4v-1h4V299z M496,299h-4v-1h4V299z M488,299h-4v-1h4V299z
					 M480,299h-4v-1h4V299z M472,299h-4v-1h4V299z M464,299h-4v-1h4V299z M456,299h-4v-1h4V299z M448,299h-4v-1h4V299z M440,299h-4
					v-1h4V299z M432,299h-4v-1h4V299z M424,299h-4v-1h4V299z M416,299h-4v-1h4V299z M408,299h-4v-1h4V299z M400,299h-4v-1h4V299z
					 M392,299h-4v-1h4V299z M384,299h-4v-1h4V299z M376,299h-4v-1h4V299z M368,299h-4v-1h4V299z M360,299h-4v-1h4V299z M352,299h-4
					v-1h4V299z M344,299h-4v-1h4V299z M336,299h-4v-1h4V299z M328,299h-4v-1h4V299z M320,299h-4v-1h4V299z M312,299h-4v-1h4V299z
					 M304,299h-4v-1h4V299z"/>
			</g>
			<g>
				<polygon style="fill:#A6A8AB;" points="296,299 294,299 294,297 295,297 295,298 296,298 				"/>
			</g>
			<g>
				<path style="fill:#A6A8AB;" d="M295,293h-1v-4h1V293z M295,285h-1v-4h1V285z M295,277h-1v-4h1V277z M295,269h-1v-4h1V269z
					 M295,261h-1v-4h1V261z M295,253h-1v-4h1V253z M295,245h-1v-4h1V245z M295,237h-1v-4h1V237z M295,229h-1v-4h1V229z M295,221h-1
					v-4h1V221z M295,213h-1v-4h1V213z M295,205h-1v-4h1V205z M295,197h-1v-4h1V197z M295,189h-1v-4h1V189z M295,181h-1v-4h1V181z
					 M295,173h-1v-4h1V173z M295,165h-1v-4h1V165z M295,157h-1v-4h1V157z M295,149h-1v-4h1V149z M295,141h-1v-4h1V141z M295,133h-1
					v-4h1V133z M295,125h-1v-4h1V125z M295,117h-1v-4h1V117z"/>
			</g>
			<g>
				<polygon style="fill:#A6A8AB;" points="295,107 294,107 294,104 296,104 296,105 295,105 				"/>
			</g>
			<g>
				<path style="fill:#A6A8AB;" d="M600,105h-4v-1h4V105z M592,105h-4v-1h4V105z M584,105h-4v-1h4V105z M576,105h-4v-1h4V105z
					 M568,105h-4v-1h4V105z M560,105h-4v-1h4V105z M552,105h-4v-1h4V105z M544,105h-4v-1h4V105z M536,105h-4v-1h4V105z M528,105h-4
					v-1h4V105z M520,105h-4v-1h4V105z M512,105h-4v-1h4V105z M504,105h-4v-1h4V105z M496,105h-4v-1h4V105z M488,105h-4v-1h4V105z
					 M480,105h-4v-1h4V105z M472,105h-4v-1h4V105z M464,105h-4v-1h4V105z M456,105h-4v-1h4V105z M448,105h-4v-1h4V105z M440,105h-4
					v-1h4V105z M432,105h-4v-1h4V105z M424,105h-4v-1h4V105z M416,105h-4v-1h4V105z M408,105h-4v-1h4V105z M400,105h-4v-1h4V105z
					 M392,105h-4v-1h4V105z M384,105h-4v-1h4V105z M376,105h-4v-1h4V105z M368,105h-4v-1h4V105z M360,105h-4v-1h4V105z M352,105h-4
					v-1h4V105z M344,105h-4v-1h4V105z M336,105h-4v-1h4V105z M328,105h-4v-1h4V105z M320,105h-4v-1h4V105z M312,105h-4v-1h4V105z
					 M304,105h-4v-1h4V105z"/>
			</g>
			<g>
				<polygon style="fill:#A6A8AB;" points="607,107 606,107 606,105 604,105 604,104 607,104 				"/>
			</g>
			<g>
				<path style="fill:#A6A8AB;" d="M607,291h-1v-4h1V291z M607,283h-1v-4h1V283z M607,275h-1v-4h1V275z M607,267h-1v-4h1V267z
					 M607,259h-1v-4h1V259z M607,251h-1v-4h1V251z M607,243h-1v-4h1V243z M607,235h-1v-4h1V235z M607,227h-1v-4h1V227z M607,219h-1
					v-4h1V219z M607,211h-1v-4h1V211z M607,203h-1v-4h1V203z M607,195h-1v-4h1V195z M607,187h-1v-4h1V187z M607,179h-1v-4h1V179z
					 M607,171h-1v-4h1V171z M607,163h-1v-4h1V163z M607,155h-1v-4h1V155z M607,147h-1v-4h1V147z M607,139h-1v-4h1V139z M607,131h-1
					v-4h1V131z M607,123h-1v-4h1V123z M607,115h-1v-4h1V115z"/>
			</g>
		</g>
		<g>
			<g>
				<polygon style="fill:#A6A8AB;" points="382,127 380,127 380,126 381,126 381,124 382,124 				"/>
			</g>
			<g>
				<path style="fill:#A6A8AB;" d="M376,127h-4v-1h4V127z M368,127h-4v-1h4V127z M360,127h-4v-1h4V127z M352,127h-4v-1h4V127z
					 M344,127h-4v-1h4V127z M336,127h-4v-1h4V127z M328,127h-4v-1h4V127z"/>
			</g>
			<g>
				<polygon style="fill:#A6A8AB;" points="318,127 315,127 315,124 316,124 316,126 318,126 				"/>
			</g>
			<g>
				<path style="fill:#A6A8AB;" d="M316,120h-1v-4h1V120z M316,112h-1v-4h1V112z M316,104h-1v-4h1V104z M316,96h-1v-4h1V96z M316,88
					h-1v-4h1V88z"/>
			</g>
			<g>
				<polygon style="fill:#A6A8AB;" points="316,80 315,80 315,78 318,78 318,79 316,79 				"/>
			</g>
			<g>
				<path style="fill:#A6A8AB;" d="M374,79h-4v-1h4V79z M366,79h-4v-1h4V79z M358,79h-4v-1h4V79z M350,79h-4v-1h4V79z M342,79h-4v-1
					h4V79z M334,79h-4v-1h4V79z M326,79h-4v-1h4V79z"/>
			</g>
			<g>
				<polygon style="fill:#A6A8AB;" points="382,80 381,80 381,79 380,79 380,78 382,78 				"/>
			</g>
			<g>
				<path style="fill:#A6A8AB;" d="M382,120h-1v-4h1V120z M382,112h-1v-4h1V112z M382,104h-1v-4h1V104z M382,96h-1v-4h1V96z M382,88
					h-1v-4h1V88z"/>
			</g>
		</g>
		<g>
			<path style="fill:#A6A8AB;" d="M549.133,163.165c-0.684,0-1.373-0.031-2.049-0.092l0.09-0.996
				c1.306,0.117,2.657,0.117,3.963-0.004l0.092,0.996C550.538,163.132,549.833,163.165,549.133,163.165z M543.007,162.319
				c-1.331-0.375-2.633-0.878-3.869-1.494l0.445-0.896c1.182,0.588,2.425,1.068,3.695,1.428L543.007,162.319z M555.305,162.307
				l-0.273-0.962c1.268-0.361,2.51-0.844,3.691-1.435l0.447,0.895C557.933,161.423,556.632,161.929,555.305,162.307z
				 M535.609,158.645c-1.101-0.83-2.133-1.769-3.068-2.79l0.736-0.676c0.896,0.977,1.882,1.874,2.934,2.667L535.609,158.645z
				 M562.692,158.616l-0.604-0.797c1.054-0.798,2.039-1.697,2.928-2.672l0.738,0.674
				C564.825,156.841,563.795,157.782,562.692,158.616z M530.035,152.551c-0.73-1.174-1.355-2.421-1.856-3.707l0.932-0.363
				c0.479,1.228,1.076,2.42,1.774,3.542L530.035,152.551z M568.254,152.512l-0.85-0.527c0.697-1.124,1.292-2.317,1.769-3.546
				l0.932,0.361C569.606,150.086,568.984,151.335,568.254,152.512z M527.037,144.856c-0.254-1.351-0.385-2.74-0.388-4.127l1-0.002
				c0.003,1.326,0.127,2.654,0.37,3.945L527.037,144.856z M571.429,144.811l-1.079-0.183c0.239-1.292,0.506-2.62,0.506-3.946
				L572,140.59v0.092C572,142.069,571.681,143.458,571.429,144.811z M528.004,136.781l-0.984-0.181
				c0.25-1.362,0.629-2.705,1.125-3.992l0.934,0.36C528.604,134.197,528.242,135.48,528.004,136.781z M570.237,136.647
				c-0.247-1.299-0.616-2.58-1.098-3.806l0.932-0.365c0.503,1.284,0.89,2.624,1.148,3.984L570.237,136.647z M530.838,129.417
				l-0.852-0.525c0.724-1.173,1.562-2.288,2.493-3.313l0.74,0.672C532.331,127.23,531.529,128.296,530.838,129.417z
				 M567.358,129.303c-0.701-1.119-1.51-2.18-2.402-3.151l0.736-0.677c0.935,1.017,1.78,2.126,2.514,3.298L567.358,129.303z
				 M536.141,123.572l-0.605-0.796c1.101-0.837,2.284-1.576,3.518-2.196l0.449,0.894
				C538.323,122.066,537.192,122.771,536.141,123.572z M562.018,123.492c-1.057-0.794-2.191-1.493-3.374-2.078l0.443-0.896
				c1.237,0.612,2.426,1.343,3.532,2.174L562.018,123.492z M543.19,120.031l-0.275-0.961c1.324-0.381,2.695-0.64,4.074-0.77
				l0.094,0.995C545.766,119.42,544.456,119.668,543.19,120.031z M554.943,119.995c-1.269-0.355-2.58-0.594-3.896-0.711l0.088-0.996
				c1.378,0.122,2.75,0.372,4.078,0.744L554.943,119.995z"/>
		</g>
		<g>
			<path style="fill:#A6A8AB;" d="M449.942,263c-1.338,0-2.682-0.167-4.006-0.251l0.063-1.061c1.306,0.083,2.63,0.093,3.937,0.093
				l0.041,0.803L449.949,263C449.947,263,449.944,263,449.942,263z M454.054,262.616l-0.064-0.998
				c1.323-0.086,2.661-0.217,3.977-0.39l0.131,0.991C456.759,262.395,455.399,262.528,454.054,262.616z M441.894,262.234
				c-1.336-0.173-2.685-0.393-4.009-0.652l0.192-0.981c1.303,0.256,2.63,0.472,3.944,0.642L441.894,262.234z M462.105,261.558
				l-0.195-0.98c1.305-0.26,2.613-0.565,3.891-0.907l0.26,0.966C464.762,260.984,463.432,261.294,462.105,261.558z M433.927,260.667
				c-1.3-0.346-2.608-0.741-3.89-1.174l0.32-0.947c1.261,0.426,2.548,0.814,3.826,1.154L433.927,260.667z M469.947,259.455
				l-0.322-0.946c1.257-0.428,2.512-0.902,3.732-1.409l0.383,0.924C472.501,258.539,471.225,259.021,469.947,259.455z
				 M426.229,258.063c-1.25-0.516-2.496-1.081-3.706-1.677l0.442-0.896c1.189,0.586,2.416,1.141,3.645,1.649L426.229,258.063z
				 M477.436,256.346l-0.443-0.896c1.189-0.589,2.373-1.224,3.518-1.887l0.502,0.865
				C479.848,255.102,478.646,255.747,477.436,256.346z M418.937,254.471c-1.167-0.674-2.328-1.396-3.453-2.146l0.556-0.832
				c1.106,0.739,2.25,1.45,3.397,2.112L418.937,254.471z M484.456,252.281l-0.557-0.831c1.103-0.738,2.193-1.522,3.244-2.331
				l0.609,0.793C486.686,250.733,485.576,251.53,484.456,252.281z M412.181,249.958c-1.07-0.821-2.127-1.688-3.143-2.577
				l0.659-0.752c0.999,0.875,2.039,1.728,3.092,2.535L412.181,249.958z M490.891,247.333l-0.66-0.751
				c0.998-0.877,1.979-1.796,2.916-2.733l0.707,0.707C492.902,245.507,491.905,246.442,490.891,247.333z M406.071,244.607
				c-0.956-0.954-1.891-1.95-2.781-2.961l0.751-0.66c0.875,0.995,1.796,1.976,2.736,2.914L406.071,244.607z M496.632,241.591
				l-0.752-0.659c0.879-1.002,1.732-2.042,2.538-3.09l0.793,0.609C498.393,239.516,497.524,240.572,496.632,241.591z
				 M400.709,238.511c-0.822-1.066-1.62-2.175-2.372-3.296l0.83-0.558c0.74,1.103,1.526,2.194,2.334,3.243L400.709,238.511z
				 M501.58,235.149l-0.83-0.557c0.736-1.101,1.448-2.243,2.114-3.395l0.865,0.501C503.053,232.869,502.33,234.03,501.58,235.149z
				 M396.187,231.773c-0.676-1.165-1.322-2.367-1.921-3.575l0.896-0.444c0.589,1.188,1.226,2.371,1.891,3.517L396.187,231.773z
				 M505.65,228.114l-0.896-0.442c0.587-1.189,1.143-2.416,1.652-3.644l0.924,0.383C506.812,225.66,506.247,226.906,505.65,228.114z
				 M392.584,224.506c-0.52-1.247-1.002-2.523-1.435-3.794l0.946-0.322c0.426,1.25,0.901,2.505,1.412,3.731L392.584,224.506z
				 M508.764,220.603l-0.947-0.321c0.427-1.257,0.815-2.543,1.157-3.824l0.967,0.258
				C509.593,218.017,509.197,219.325,508.764,220.603z M389.964,216.828c-0.35-1.302-0.662-2.632-0.926-3.955l0.98-0.195
				c0.26,1.301,0.566,2.61,0.911,3.891L389.964,216.828z M510.857,212.758l-0.98-0.193c0.257-1.304,0.475-2.63,0.646-3.944
				l0.992,0.13C511.34,210.085,511.119,211.434,510.857,212.758z M388.375,208.865c-0.176-1.333-0.311-2.692-0.401-4.041
				l0.998-0.066c0.088,1.328,0.221,2.666,0.394,3.977L388.375,208.865z M511.888,204.708l-1.008-0.064
				c0.086-1.324,0.119-2.667,0.119-3.994V200h1v0.643C512,201.997,511.975,203.362,511.888,204.708z M389,201h-1v-0.357
				c0-1.31-0.041-2.637,0.042-3.938l1.039,0.062c-0.081,1.28-0.081,2.586-0.081,3.881V201z M510.895,196.428
				c-0.09-1.323-0.225-2.66-0.401-3.976l0.99-0.133c0.18,1.337,0.317,2.697,0.409,4.041L510.895,196.428z M389.337,192.79
				l-0.992-0.127c0.172-1.341,0.391-2.69,0.649-4.01l0.981,0.192C389.721,190.143,389.506,191.47,389.337,192.79z M509.832,188.51
				c-0.263-1.304-0.571-2.612-0.917-3.889l0.965-0.262c0.352,1.298,0.665,2.628,0.933,3.953L509.832,188.51z M390.871,184.951
				l-0.967-0.256c0.346-1.303,0.739-2.612,1.17-3.891l0.947,0.319C391.598,182.381,391.211,183.669,390.871,184.951z
				 M507.741,180.801c-0.427-1.247-0.904-2.501-1.418-3.729l0.922-0.387c0.522,1.248,1.008,2.523,1.441,3.791L507.741,180.801z
				 M393.425,177.375l-0.925-0.381c0.514-1.247,1.077-2.494,1.673-3.708l0.897,0.441
				C394.484,174.921,393.931,176.148,393.425,177.375z M504.661,173.442c-0.589-1.183-1.227-2.365-1.896-3.513l0.863-0.504
				c0.681,1.167,1.329,2.369,1.927,3.572L504.661,173.442z M396.952,170.198l-0.866-0.499c0.673-1.17,1.395-2.332,2.143-3.455
				l0.832,0.555C398.324,167.904,397.615,169.047,396.952,170.198z M500.643,166.546c-0.737-1.095-1.524-2.184-2.339-3.239
				l0.791-0.611c0.828,1.072,1.628,2.179,2.378,3.292L500.643,166.546z M401.387,163.546l-0.794-0.607
				c0.821-1.072,1.687-2.13,2.574-3.145l0.753,0.658C403.046,161.45,402.194,162.491,401.387,163.546z M495.757,160.228
				c-0.874-0.99-1.796-1.969-2.74-2.909l0.705-0.709c0.96,0.955,1.896,1.95,2.785,2.957L495.757,160.228z M406.646,157.53
				l-0.709-0.706c0.951-0.954,1.946-1.891,2.959-2.783l0.661,0.75C408.561,155.669,407.581,156.591,406.646,157.53z
				 M490.091,154.594c-1.002-0.874-2.044-1.725-3.097-2.53l0.607-0.795c1.07,0.818,2.129,1.683,3.147,2.571L490.091,154.594z
				 M412.64,152.249l-0.611-0.792c1.067-0.823,2.175-1.623,3.293-2.375l0.559,0.83C414.78,150.652,413.689,151.438,412.64,152.249z
				 M483.738,149.742c-1.102-0.733-2.246-1.442-3.399-2.105l0.498-0.867c1.173,0.674,2.336,1.394,3.456,2.14L483.738,149.742z
				 M419.266,147.792l-0.503-0.864c1.164-0.677,2.366-1.324,3.573-1.924l0.445,0.896
				C421.594,146.489,420.411,147.126,419.266,147.792z M476.808,145.758c-1.196-0.586-2.424-1.139-3.649-1.643l0.381-0.925
				c1.245,0.512,2.492,1.074,3.708,1.67L476.808,145.758z M426.412,144.241l-0.386-0.923c1.242-0.519,2.518-1.002,3.792-1.438
				l0.324,0.946C428.889,143.254,427.633,143.73,426.412,144.241z M469.408,142.716c-1.259-0.423-2.547-0.809-3.828-1.147
				l0.256-0.967c1.302,0.344,2.611,0.736,3.891,1.166L469.408,142.716z M433.964,141.657l-0.261-0.966
				c1.297-0.35,2.627-0.663,3.954-0.93l0.197,0.98C436.549,141.005,435.24,141.312,433.964,141.657z M461.687,140.676
				c-1.305-0.253-2.633-0.467-3.946-0.634l0.127-0.992c1.334,0.17,2.684,0.387,4.011,0.645L461.687,140.676z M441.795,140.085
				l-0.132-0.991c1.334-0.178,2.694-0.314,4.041-0.405l0.067,0.998C444.446,139.776,443.108,139.911,441.795,140.085z
				 M453.761,139.892c-1.264-0.079-2.551,0.108-3.824,0.108H450v-1h-0.063c1.294,0,2.602-0.073,3.887,0.007L453.761,139.892z"/>
		</g>
	</g>
	<g>
		<g>
			<path style="fill:none;stroke:#231F20;stroke-miterlimit:10;" d="M521.5,419.5v-13h-33v13h-11v97h156v-97H521.5z
				 M555.514,498.847c-17.01,0-30.8-13.79-30.8-30.8c0-17.01,13.79-30.8,30.8-30.8s30.8,13.79,30.8,30.8
				C586.314,485.057,572.524,498.847,555.514,498.847z M605.114,449.057c-6.07,0-10.99-4.92-10.99-10.99s4.92-10.99,10.99-10.99
				c6.07,0,10.99,4.92,10.99,10.99S611.184,449.057,605.114,449.057z"/>
		</g>
	</g>
	<g>
		<g>
			<path style="fill:#00A69C;stroke:#231F20;stroke-miterlimit:10;" d="M732.5,419.5v-13h-33v13h-11v97h156v-97H732.5z
				 M766.536,498.847c-17.01,0-30.8-13.79-30.8-30.8c0-17.01,13.79-30.8,30.8-30.8s30.8,13.79,30.8,30.8
				C797.336,485.057,783.546,498.847,766.536,498.847z M816.136,449.057c-6.07,0-10.99-4.92-10.99-10.99s4.92-10.99,10.99-10.99
				c6.07,0,10.99,4.92,10.99,10.99S822.206,449.057,816.136,449.057z"/>
		</g>
	</g>
	<g>
		<g>
			<g>
				<path style="fill:#231F20;" d="M133.217,562.545c-0.108,0-0.108-0.036-0.108-0.108v-9.812c-0.594,0.36-1.566,0.721-2.143,0.864
					c-0.09,0.019-0.126-0.019-0.126-0.108v-1.044c0-0.072,0-0.108,0.09-0.126c0.883-0.252,1.873-0.738,2.485-1.135
					c0.071-0.072,0.18-0.072,0.252-0.072h0.864c0.054,0,0.072,0.037,0.072,0.108v11.325c0,0.072-0.019,0.108-0.091,0.108H133.217z"
					/>
			</g>
		</g>
		<g>
			<g>
				<path style="fill:#231F20;" d="M133.468,540.379c9.28,0,16.829,7.55,16.829,16.829s-7.55,16.829-16.829,16.829
					s-16.829-7.55-16.829-16.829S124.189,540.379,133.468,540.379 M133.468,538.379c-10.399,0-18.829,8.43-18.829,18.829
					s8.43,18.829,18.829,18.829s18.829-8.43,18.829-18.829S143.868,538.379,133.468,538.379L133.468,538.379z"/>
			</g>
		</g>
	</g>
	<g>
		<g>
			<g>
				<path style="fill:#231F20;" d="M341.078,562.545c-0.09,0-0.107-0.054-0.107-0.126v-0.811c0-0.09,0.018-0.126,0.071-0.18
					c0.757-0.594,2.071-1.675,3.296-2.881c1.729-1.656,2.143-2.773,2.143-3.926c0-1.296-0.702-2.34-2.377-2.34
					c-1.099,0-1.891,0.342-2.665,0.792c-0.072,0.054-0.126,0.018-0.126-0.054v-1.152c0-0.09,0-0.108,0.072-0.162
					c0.846-0.486,1.854-0.811,3.007-0.811c2.484,0,3.601,1.692,3.601,3.564c0,1.387-0.485,2.719-2.143,4.357
					c-1.08,1.117-2.017,1.909-2.683,2.467c0.612-0.054,1.206-0.054,2.827-0.054h2.484c0.09,0,0.126,0.019,0.108,0.09l-0.271,1.116
					c-0.036,0.09-0.054,0.108-0.144,0.108H341.078z"/>
			</g>
		</g>
		<g>
			<g>
				<path style="fill:#231F20;" d="M344.491,540.379c9.28,0,16.829,7.55,16.829,16.829s-7.55,16.829-16.829,16.829
					s-16.829-7.55-16.829-16.829S335.211,540.379,344.491,540.379 M344.491,538.379c-10.399,0-18.829,8.43-18.829,18.829
					s8.43,18.829,18.829,18.829s18.829-8.43,18.829-18.829S354.89,538.379,344.491,538.379L344.491,538.379z"/>
			</g>
		</g>
	</g>
	<g>
		<g>
			<g>
				<path style="fill:#231F20;" d="M553.964,557.179c-0.09,0-0.126-0.035-0.126-0.107v-1.135c0-0.071,0.018-0.125,0.108-0.125h0.666
					c1.584,0,2.557-0.613,2.557-1.766c0-1.008-0.666-1.782-2.251-1.782c-0.937,0-1.729,0.216-2.593,0.721
					c-0.09,0.036-0.107,0.018-0.107-0.054v-1.152c0-0.072,0-0.108,0.071-0.162c0.774-0.433,1.801-0.703,2.881-0.703
					c2.251,0,3.476,1.242,3.476,2.953c0,1.44-1.081,2.232-1.891,2.503c1.044,0.233,2.467,1.044,2.467,2.899
					c0,2.214-1.818,3.457-4.249,3.457c-1.171,0-2.161-0.217-2.917-0.648c-0.072-0.036-0.072-0.108-0.072-0.181v-1.242
					c0-0.072,0.054-0.108,0.108-0.072c0.936,0.54,1.818,0.792,2.862,0.792c1.944,0,2.737-0.972,2.737-2.105
					c0-1.441-1.188-2.09-2.972-2.09H553.964z"/>
			</g>
		</g>
		<g>
			<g>
				<path style="fill:#231F20;" d="M555.251,540.379c9.28,0,16.829,7.55,16.829,16.829s-7.55,16.829-16.829,16.829
					s-16.829-7.55-16.829-16.829S545.972,540.379,555.251,540.379 M555.251,538.379c-10.399,0-18.829,8.43-18.829,18.829
					s8.43,18.829,18.829,18.829s18.829-8.43,18.829-18.829S565.651,538.379,555.251,538.379L555.251,538.379z"/>
			</g>
		</g>
	</g>
	<g>
		<g>
			<g>
				<path style="fill:#231F20;" d="M762.215,559.556c-0.091,0-0.108-0.018-0.108-0.072v-0.99c0-0.09,0.018-0.107,0.054-0.18
					l4.897-7.13c0.055-0.072,0.09-0.108,0.198-0.108h1.53c0.072,0,0.108,0.036,0.108,0.108v7.13h1.458
					c0.072,0,0.091,0.036,0.072,0.108l-0.162,1.062c-0.018,0.055-0.054,0.072-0.144,0.072h-1.225v2.881
					c0,0.072-0.036,0.108-0.108,0.108h-1.224c-0.072,0-0.108-0.054-0.108-0.108v-2.881H762.215z M767.454,556.099
					c0-1.818,0.054-3.043,0.09-3.637h-0.018c-0.396,0.792-3.277,4.97-3.836,5.852h3.764V556.099z"/>
			</g>
		</g>
		<g>
			<g>
				<path style="fill:#231F20;" d="M766.536,540.379c9.28,0,16.829,7.55,16.829,16.829s-7.55,16.829-16.829,16.829
					s-16.829-7.55-16.829-16.829S757.257,540.379,766.536,540.379 M766.536,538.379c-10.399,0-18.829,8.43-18.829,18.829
					s8.43,18.829,18.829,18.829c10.399,0,18.829-8.43,18.829-18.829S776.936,538.379,766.536,538.379L766.536,538.379z"/>
			</g>
		</g>
	</g>
	<g style="opacity:0.5;">
		<g>
			<path style="fill:#A6A8AB;" d="M873.751,377h-847c-0.276,0-0.5-0.224-0.5-0.5s0.224-0.5,0.5-0.5h847c0.276,0,0.5,0.224,0.5,0.5
				S874.028,377,873.751,377z"/>
		</g>
	</g>
</g>
<g id="Working_Layer">
</g>
</svg>
